<?xml version="1.0" standalone="no"?>
<!DOCTYPE svg PUBLIC "-//W3C//DTD SVG 1.1//EN" "http://www.w3.org/Graphics/SVG/1.1/DTD/svg11.dtd">
<svg xmlns="http://www.w3.org/2000/svg">
<metadata>Copyright (C) 2018 by original authors @ fontello.com</metadata>
<defs>
<font id="font_hc_wechat" horiz-adv-x="1000" >
<font-face font-family="font_hc_wechat" font-weight="400" font-stretch="normal" units-per-em="1000" ascent="850" descent="-150" />
<missing-glyph horiz-adv-x="1000" />
<glyph glyph-name="hc-w-plus" unicode="&#xe800;" d="M550 400q30 0 30-50t-30-50l-210 0 0-210q0-30-50-30t-50 30l0 210-210 0q-30 0-30 50t30 50l210 0 0 210q0 30 50 30t50-30l0-210 210 0z" horiz-adv-x="580" />

<glyph glyph-name="hc-w-minus" unicode="&#xe801;" d="M550 400q30 0 30-50t-30-50l-520 0q-30 0-30 50t30 50l520 0z" horiz-adv-x="580" />

<glyph glyph-name="hc-w-location" unicode="&#xe802;" d="M683 146c139-22 234-67 234-120 0-74-187-134-417-134-230 0-417 60-417 134 0 53 96 98 234 120 80-78 168-165 168-165 8-7 22-7 30 0 0 0 88 87 168 165z m-194-43c0 0-220 215-220 215-46 52-73 120-73 194 0 164 136 296 304 296 168 0 304-132 304-296 0-74-27-142-73-194 0 0-220-215-220-215-6-6-16-6-22 0z m11 544c-72 0-131-57-131-128 0-70 59-127 131-127 72 0 131 57 131 127 0 71-59 128-131 128z" horiz-adv-x="1000" />

<glyph glyph-name="hc-w-company" unicode="&#xe803;" d="M626 4l178 0 0 311-178 126 0-437z m-54 544l287-202 0-400-287 0 0 602z m-376-544l369 0 0 743-369 0 0-743z m424-1l316 0 0-57-872 0 0 57 77 0 0 802 479 0 0-802z m-339 505l198 0 0 57-198 0 0-57z m0-168l198 0 0 58-198 0 0-58z m0-167l198 0 0 57-198 0 0-57z" horiz-adv-x="1000" />

<glyph glyph-name="hc_wechat" unicode="&#xe804;" d="M179 707q0-40-36-61v-707q0-7-5-12t-13-6h-36q-7 0-12 6t-6 12v707q-35 21-35 61 0 30 21 51t50 21 51-21 21-51z m821-36v-425q0-14-7-22t-22-15q-120-65-206-65-34 0-69 12t-60 27-65 27-79 12q-107 0-259-81-10-5-19-5-14 0-25 10t-10 25v415q0 17 17 30 12 8 44 24 132 67 235 67 60 0 112-16t122-49q21-11 49-11 30 0 65 12t62 26 49 26 30 12q15 0 25-10t11-26z" horiz-adv-x="1000" />

<glyph glyph-name="hc-w-search-1" unicode="&#xe805;" d="M890 19l-179 180c102 132 93 322-28 443-131 131-344 131-475 0-130-131-130-343 0-474 121-121 312-131 443-28l180-180 59 59z m-622 208c-99 98-99 257 0 356 98 98 257 98 355 0 98-99 98-258 0-356-98-98-257-98-355 0z" horiz-adv-x="1000" />

<glyph glyph-name="hc-w-down" unicode="&#xe806;" d="M460 550l-230-400-230 400 460 0z" horiz-adv-x="460" />

<glyph glyph-name="hc-w-left" unicode="&#xe807;" d="M400 580l0-460-400 230z" horiz-adv-x="400" />

<glyph glyph-name="hc-w-right-1" unicode="&#xe808;" d="M0 580l400-230-400-230 0 460z" horiz-adv-x="400" />

<glyph glyph-name="hc-w-up" unicode="&#xe809;" d="M0 150l230 400 230-400-460 0z" horiz-adv-x="460" />

<glyph glyph-name="hc-w-dot" unicode="&#xe80a;" d="M110 460q46 0 78-32t32-78q0-44-32-77t-78-33-78 33-32 77q0 46 32 78t78 32z m350 0q46 0 78-32t32-78q0-44-33-77t-77-33-77 33-33 77q0 46 32 78t78 32z m350 0q46 0 78-32t32-78q0-44-32-77t-78-33-78 33-32 77q0 46 32 78t78 32z" horiz-adv-x="920" />

<glyph glyph-name="hc-w-right-2" unicode="&#xe80d;" d="M0 347q0 26 18 43t43 17h642l-242 244q-19 18-19 44t19 42q17 19 42 19t44-19l390-390-390-391q-20-18-44-18t-42 18-19 44 19 43l242 242h-642q-25 0-43 18t-18 44z" horiz-adv-x="938" />

<glyph glyph-name="hc-w-ok-circle" unicode="&#xe80e;" d="M500 850q136 0 251-67t182-182 67-251-67-251-182-182-251-67-251 67-182 182-67 251 67 251 182 182 251 67z m-240-447l-54-53q71-71 129-133t81-90l22-26q8 13 22 36t57 85 83 119 95 119 99 104q-18 35-36 35-10-6-32-22t-113-97-211-201z" horiz-adv-x="1000" />

<glyph glyph-name="hc-w-flag" unicode="&#xe812;" d="M874 616q14 6 22-1t0-19q-96-138-164-213t-110-90-73-2-60 37-63 40-93-4-139-86l90-352-100 0-184 720 92 34q90 66 152 86t98 3 64-51 62-71 79-62 129-20 198 51z" horiz-adv-x="900" />

<glyph glyph-name="hc-w-direction" unicode="&#xe816;" d="M782 655l-357-714q-10-20-32-20-3 0-8 1-13 3-20 13t-8 22v322h-321q-13 0-22 7t-13 20 2 23 17 17l714 357q7 4 16 4 15 0 25-10 9-8 10-20t-3-22z" horiz-adv-x="785.7" />

<glyph glyph-name="hc-w-star-2" unicode="&#xe819;" d="M635 290l170 166-235 34-106 213-105-213-236-34 171-166-41-235 211 111 211-111z m294 199q0-12-15-27l-202-197 48-279q0-4 0-12 0-28-23-28-10 0-22 7l-251 132-250-132q-12-7-23-7-11 0-17 9t-6 19q0 4 1 12l48 279-203 197q-14 15-14 27 0 21 31 26l280 40 126 254q11 23 27 23t28-23l125-254 280-40q32-5 32-26z" horiz-adv-x="928.6" />

<glyph glyph-name="hc-w-star-1" unicode="&#xe81a;" d="M929 489q0-12-15-27l-202-197 48-279q0-4 0-12 0-11-6-19t-17-9q-10 0-22 7l-251 132-250-132q-12-7-23-7-11 0-17 9t-6 19q0 4 1 12l48 279-203 197q-14 15-14 27 0 21 31 26l280 40 126 254q11 23 27 23t28-23l125-254 280-40q32-5 32-26z" horiz-adv-x="928.6" />

<glyph glyph-name="hc-w-delete-1" unicode="&#xe81c;" d="M501 402l-180 186c-14 16-38 16-52 2-15-14-15-38-1-53l180-186-186-180c-15-14-16-38-2-52 14-15 38-15 53-1l186 180 180-186c14-15 38-16 52-2 15 14 15 38 1 53l-180 186 186 180c16 14 16 38 2 52-14 15-38 15-53 1l-186-180z" horiz-adv-x="1000" />

<glyph glyph-name="hc-w-heart" unicode="&#xe81e;" d="M677 725c144 0 261-117 261-261 0-112-81-224-213-334-45-38-93-73-141-104-16-11-32-20-46-29-9-5-15-9-18-10l-21-12-20 12c-4 2-10 6-18 12-14 9-30 19-46 31-48 33-96 70-140 108-84 73-148 145-183 215-19 38-29 75-29 111 0 144 116 261 260 261 67 0 130-25 177-69 47 44 110 69 177 69z m-137-634c45 29 91 62 133 98 116 97 185 193 185 275 0 102-81 183-181 183-58 0-111-27-145-72l-32-43-32 43c-34 45-87 72-145 72-100 0-181-81-181-183 0-23 7-49 21-77 30-59 87-124 165-191 42-36 87-71 133-103 14-10 28-19 40-27 12 7 25 16 39 25z" horiz-adv-x="1000" />

<glyph glyph-name="hc-w-heart-empty" unicode="&#xe81f;" d="M306 725c-135 0-243-112-243-250 0-225 437-500 437-500 0 0 438 250 438 500 0 138-109 250-244 250-79 0-150-39-194-100-44 61-115 100-194 100z" horiz-adv-x="1000" />

<glyph glyph-name="hc-w-delete-2" unicode="&#xe822;" d="M335 734l0 66 331 0 0-66 284 0 0-71-36 0-67 0 0-713-694 0 0 713-67 0-36 0 0 71 285 0z m439-71l-548 0 0-642 548 0 0 642z m-414-133l73 0 0-376-73 0 0 376z m207 0l73 0 0-376-73 0 0 376z" horiz-adv-x="1000" />

<glyph glyph-name="hc-w-box" unicode="&#xe823;" d="M224 456l276-171-191-159-273 178z m551-310v-60l-274-164v-1l0 1-1-1v1l-273 164v60l82-54 191 159v1l1-1 0 1v-1l192-159z m-466 638l191-159-276-169-188 150z m467-328l188-152-273-178-191 159z m-85 328l273-178-188-150-276 169z" horiz-adv-x="1000" />

<glyph glyph-name="hc-w-connection" unicode="&#xe828;" d="M520 308c0 23 18 42 40 42 22 0 40-19 40-42 0-115-90-208-199-208l-160 0c-110 0-199 93-199 208 0 115 89 209 199 209l106 0c22 0 39-19 39-42 0-23-17-42-39-42l-106 0c-66 0-120-56-120-125 0-69 54-125 120-125l160 0c65 0 119 56 119 125z m-40 0c0-23-18-41-40-41-22 0-40 18-40 41 0 115 90 209 200 209l159 0c110 0 199-94 199-209 0-115-89-208-199-208l-130 0c-22 0-40 19-40 42 0 23 18 41 40 41l130 0c66 0 120 56 120 125 0 69-54 125-120 125l-159 0c-66 0-120-56-120-125z" horiz-adv-x="1000" />

<glyph glyph-name="hc-w-number-up" unicode="&#xe82b;" d="M256 739l78 0 0-734-278 208 50 55 150-107 0 578z m668-12l0-78-445 0 0 78 445 0z m0-315l0-78-445 0 0 78 445 0z m0-314l0-78-445 0 0 78 445 0z" horiz-adv-x="1000" />

<glyph glyph-name="hc-w-angle-left" unicode="&#xe82c;" d="M350 546q0-7-6-12l-219-220 219-219q6-6 6-13t-6-13l-28-28q-5-5-12-5t-13 5l-260 261q-6 5-6 12t6 13l260 260q5 6 13 6t12-6l28-28q6-5 6-13z" horiz-adv-x="357.1" />

<glyph glyph-name="hc-w-angle-right" unicode="&#xe82d;" d="M332 314q0-7-5-12l-261-261q-5-5-12-5t-13 5l-28 28q-6 6-6 13t6 13l219 219-219 220q-6 5-6 12t6 13l28 28q5 6 13 6t12-6l261-260q5-5 5-13z" horiz-adv-x="357.1" />

<glyph glyph-name="hc-w-angle-up" unicode="&#xe82e;" d="M600 189q0-7-6-12l-28-28q-5-6-12-6t-13 6l-220 219-219-219q-5-6-13-6t-12 6l-28 28q-6 5-6 12t6 13l260 260q5 6 12 6t13-6l260-260q6-5 6-13z" horiz-adv-x="642.9" />

<glyph glyph-name="hc-w-angle-down" unicode="&#xe82f;" d="M600 439q0-7-6-12l-260-261q-5-5-13-5t-12 5l-260 261q-6 5-6 12t6 13l28 28q5 6 12 6t13-6l219-219 220 219q5 6 13 6t12-6l28-28q6-5 6-13z" horiz-adv-x="642.9" />

<glyph glyph-name="hc-w-menu-1" unicode="&#xe830;" d="M200 10l0 720 664 0 0-784-548 0-236 0 0 710 64 0 0-646 56 0z m64 0l536 0 0 656-536 0 0-656z m448 519l0-68-360 0 0 68 360 0z m0-170l0-68-360 0 0 68 360 0z m0-169l0-68-360 0 0 68 360 0z" horiz-adv-x="960" />

<glyph glyph-name="hc-w-refresh" unicode="&#xe831;" d="M734 639c-65 44-142 69-223 69-221 0-400-180-400-401 0-222 179-401 400-401 172 0 323 109 378 270l-79 27c-44-127-163-214-299-214-175 0-316 142-316 318 0 175 141 317 316 317 77 0 150-28 206-77l-80-40 37-75 186 93-71 214-79-27 24-73z" horiz-adv-x="1000" />

<glyph glyph-name="hc-w-menu-2" unicode="&#xe832;" d="M272 44l0 686 600 0 0-753-600 0 0 3-152 0 0 710 64 0 0-646 88 0z m480 526l-360 0 0-68 360 0 0 68z m0-160l-360 0 0-68 360 0 0 68z m0-200l-360 0 0-68 360 0 0 68z" horiz-adv-x="960" />

<glyph glyph-name="hc-w-menu-3" unicode="&#xe833;" d="M414 568c0 73-59 132-132 132-73 0-132-59-132-132 0-72 59-131 132-131l132 0 0 131z m-132 199c109 0 198-89 198-199l0-156c0-23-18-42-41-42l-157 0c-110 0-199 89-199 198 0 110 89 199 199 199z m0-437l157 0c23 0 41-18 41-41l0-157c0-110-89-199-198-199-110 0-199 89-199 199 0 109 89 198 199 198z m0-66c-73 0-132-59-132-132 0-73 59-132 132-132 73 0 132 59 132 132l0 132-132 0z m280 66l156 0c110 0 199-89 199-198 0-110-89-199-199-199-109 0-198 89-198 199l0 157c0 23 19 41 42 41z m25-198c0-73 59-132 131-132 73 0 132 59 132 132 0 73-59 132-132 132l-131 0 0-132z m131 635c110 0 199-89 199-199 0-109-89-198-199-198l-156 0c-23 0-42 19-42 42l0 156c0 110 89 199 198 199z m0-330c73 0 132 59 132 131 0 73-59 132-132 132-72 0-131-59-131-132l0-131 131 0z" horiz-adv-x="1000" />

<glyph glyph-name="hc-w-menu-4" unicode="&#xe834;" d="M282 767l0 0c109 0 198-89 198-199l0-156c0-23-18-42-41-42l-157 0c-110 0-199 89-199 198l0 0 0 0c0 110 89 199 199 199l0 0z m0-437l157 0c23 0 41-18 41-41l0-157c0-110-89-199-198-199-110 0-199 89-199 199 0 109 89 198 199 198l0 0z m280 0l156 0 0 0c110 0 199-89 199-198l0 0c0-110-89-199-199-199-109 0-198 89-198 199l0 157c0 23 19 41 42 41z m156 437l0 0c110 0 199-89 199-199l0 0c0-109-89-198-199-198l-156 0c-23 0-42 19-42 42l0 156 0 0c0 110 89 199 198 199l0 0z" horiz-adv-x="1000" />

<glyph glyph-name="hc-w-menu-5" unicode="&#xe835;" d="M542-25c-222 0-500 222-500 375 0 161 255 375 500 375 238 0 500-227 500-375 0-139-286-375-500-375z m0 68c179 0 432 209 432 307 0 108-229 307-432 307-210 0-432-186-432-307 0-111 244-307 432-307z m0 103c-113 0-204 91-204 204 0 113 91 205 204 205 112 0 203-92 203-205 0-113-91-204-203-204z m0 68c75 0 135 61 135 136 0 75-60 136-135 136-75 0-136-61-136-136 0-75 61-136 136-136z" horiz-adv-x="1083" />

<glyph glyph-name="hc-w-menu-6" unicode="&#xe836;" d="M542-25c-241 0-500 247-500 375 0 128 224 375 500 375 276 0 500-270 500-375 0-105-260-375-500-375z m0 234c75 0 136 63 136 141 0 78-61 141-136 141-76 0-137-63-137-141 0-78 61-141 137-141z" horiz-adv-x="1083" />

<glyph glyph-name="hc-w-menu-7" unicode="&#xe837;" d="M688 203c-53-43-119-68-188-68-69 0-135 25-188 68-81-54-137-142-156-242l688 0c-18 100-75 188-156 242z m-10 85c141-70 239-221 239-396l-834 0c0 175 98 326 240 396 43-51 106-83 177-83 71 0 134 32 178 83z m-178 520c115 0 208-97 208-217l0-97c0-121-93-218-208-218-115 0-208 97-208 218l0 97c0 120 93 217 208 217z m0-69c-78 0-142-67-142-148l0-97c0-82 64-148 142-148 78 0 142 66 142 148l0 97c0 81-64 148-142 148z" horiz-adv-x="1000" />

<glyph glyph-name="hc-w-menu-8" unicode="&#xe838;" d="M678 288c141-70 239-221 239-396l-834 0c0 175 98 326 240 396 43-51 106-83 177-83 71 0 134 32 178 83z m-178 520c115 0 208-93 208-208l0-116c0-115-93-208-208-208l0 0c-115 0-208 93-208 208l0 116 0 0c0 115 93 208 208 208z" horiz-adv-x="1000" />

<glyph glyph-name="hc-spin" unicode="&#xe839;" d="M855 9c-189-190-520-172-705 13-190 190-200 494-28 695 11 13 21 26 35 34 36 23 85 18 117-13 30-31 35-76 16-112-5-9-9-15-16-22-140-151-145-379-8-516 153-153 407-121 542 34 106 122 142 297 77 451-83 198-305 291-510 222l0 1c236 82 492-24 588-252 71-167 37-355-72-493-11-15-23-29-36-42z" horiz-adv-x="1000" />

<glyph glyph-name="hc-w-large" unicode="&#xe83a;" d="M738 310l-198 0 0-198c0-99 80-179 178-179l20 0c99 0 179 80 179 179l0 20c0 98-80 178-179 178l0 0z m-476 0c-99 0-179-80-179-178l0-20c0-99 80-179 179-179l20 0c98 0 178 80 178 179l0 198-198 0 0 0z m20 457l-20 0c-99 0-179-80-179-179l0-20c0-98 80-178 179-178l198 0 0 198c0 99-80 179-178 179l0 0z m456 0l-20 0c-98 0-178-80-178-179l0-198 198 0c99 0 179 80 179 178l0 20c0 99-80 179-179 179l0 0z" horiz-adv-x="1000" />

<glyph glyph-name="hc-w-product" unicode="&#xe83b;" d="M839 242c0 0 30 23 30 57l0 185-41-21 0-100c0 0 3-34-46-74-44-38-336-299-336-299l55-49 338 301z m-242 254c0 0 67 259 200 263 132 4 161-86 157-143-4-67-78-117-126-125 0 34 0 47 0 47 0 0 78 19 79 80 0 47-29 108-110 100-94-9-162-246-162-246l-14-13-24 37 0 0 0 0z m139 134l37 0 0-257c1-22-28-49-28-49l-369-326 0 0c-35-31-87-31-121 0l-178 161 0 0c-37 33-40 91-7 128 3 3 5 5 8 7 207 184 323 287 348 309 30 27 49 27 49 27l225 0-52-115 6-23c2-9 1-24 1-24-5-19-25-33-48-33-27 0-50 20-50 45 0 12 15 38 39 42l14 42c-63-11-97-47-97-85 0-47 43-85 95-85 52 0 95 38 95 85-1 16-3 19-9 36-6 16 25 81 25 81l17 34z" horiz-adv-x="1000" />

<glyph glyph-name="hc-w-search-2" unicode="&#xe83d;" d="M743 178l217-217-64-64-221 222c-64-43-142-69-225-69-221 0-400 179-400 400 0 221 179 400 400 400 221 0 400-179 400-400 0-105-40-201-107-272z m-293-28c166 0 300 134 300 300 0 166-134 300-300 300-166 0-300-134-300-300 0-166 134-300 300-300z" horiz-adv-x="1000" />

<glyph glyph-name="hc-w-screen" unicode="&#xe83e;" d="M436 385l0-184 128-115 0 300 233 337-594 0 233-338z m-386 415l900 0-301-436 0-464-298 269 0 194-301 437z" horiz-adv-x="1000" />

<glyph glyph-name="hc-w-phone-1" unicode="&#xe840;" d="M114-37l572 0 0 774-572 0 0-774z m636 837l0-900-700 0 0 900 700 0z m-465-749l268 0 0 55-268 0 0-55z" horiz-adv-x="800" />

<glyph glyph-name="hc-w-via" unicode="&#xe841;" d="M696 687c9 0 15 0 21 1l56 1 0-406c0-160-90-284-344-380l-20-8-10 4-9 4c-255 96-344 220-344 380l0 406 29-1 26 0c7-1 13-1 21-1 78 0 141 15 192 39 29 14 51 30 55 36l40 43 21-23 20-21c4-4 26-21 55-35 51-24 114-39 191-39z m0-56c-86 0-158 17-216 45-33 16-60 35-71 46-12-12-38-31-70-46-58-28-130-45-217-45-7 0-13 0-19 1l0-349c0-136 75-240 306-328 232 88 306 192 306 328l0 349c-5-1-11-1-19-1z m-410-303l83-79 159 250 49-30-197-309-134 128 40 40z" horiz-adv-x="818" />

<glyph glyph-name="hc-w-up-2" unicode="&#xe842;" d="M190 470l55-56 213 213v-702h79v702l213-213 55 56-307 307-308-307z" horiz-adv-x="1000" />

<glyph glyph-name="hc-w-down-2" unicode="&#xe843;" d="M498-75l307 308-55 55-213-213v702h-79v-702l-213 213-55-55 308-308z" horiz-adv-x="1000" />

<glyph glyph-name="hc-w-prompt-1" unicode="&#xe844;" d="M938 355c0 237-196 433-443 433-237 0-432-196-432-433 0-247 195-443 432-443 247 0 443 196 443 443z m-401-139l0-85-73 0 0 85 73 0z m0 353l0-301-73 0 0 301 73 0z" horiz-adv-x="1000" />

<glyph glyph-name="hc-w-prompt-2" unicode="&#xe845;" d="M938 345c0-237-196-433-443-433-237 0-432 196-432 433 0 247 195 443 432 443 247 0 443-196 443-443z m-401 139l0 85-73 0 0-85 73 0z m0-353l0 301-73 0 0-301 73 0z" horiz-adv-x="1000" />

<glyph glyph-name="hc-w-thumbs-up" unicode="&#xe846;" d="M559 794c-56 0-93-51-93-113 0-4 0-7 0-10-3-116-89-210-191-223l-1-542 10 0c0 0 0 0 1 0 0 0 0 0 0 0l495 0 0 0c19 0 30 5 47 17 16 12 28 27 36 45 2 4 79 372 81 394 2 23-3 47-15 69-19 33-46 47-79 49-2 0-200 1-200 1 13 41 17 91 17 138 0 30-3 59-9 88l-1 0c-10 50-50 87-98 87z m-357-348l-107 0c-22 0-39-19-39-42l0-456c0-23 17-42 39-42l107 0c22 0 39 19 39 42l0 456c0 23-17 42-39 42z" horiz-adv-x="1000" />

<glyph glyph-name="hc-w-eye-1" unicode="&#xe847;" d="M643-79c-244 0-457 173-572 429 115 256 328 429 572 429 244 0 457-173 571-429-114-256-327-429-571-429z m0 215c118 0 214 96 214 214 0 118-96 214-214 214-118 0-214-96-214-214 0-118 96-214 214-214z" horiz-adv-x="1286" />

<glyph glyph-name="hc-w-eye-2" unicode="&#xe849;" d="M617-63c-230 0-435 158-545 405l-9 21 9 20c110 247 315 405 545 405 230 0 436-158 546-405l9-20-9-21c-110-247-316-405-546-405z m0 101c181 0 349 123 445 325-96 201-264 325-445 325-181 0-348-124-445-325 97-202 264-325 445-325z m0 164c-92 0-166 72-166 161 0 88 74 160 166 160 92 0 167-72 167-160 0-89-75-161-167-161z" horiz-adv-x="1250" />

<glyph glyph-name="hc-w-phone-2" unicode="&#xe84a;" d="M433 283c-87 87-170 187-130 226 57 57 106 92 6 217-101 125-168 29-223-26-63-63-3-300 231-534 233-233 470-293 533-230 55 55 151 122 26 223-125 100-160 51-217-6-39-39-140 43-226 130z" horiz-adv-x="1000" />

<glyph glyph-name="hc-w-time" unicode="&#xe84d;" d="M496-96c-249 0-450 202-450 451 0 248 201 450 450 450 248 0 450-202 450-450 0-249-202-451-450-451z m0 82c203 0 368 165 368 369 0 203-165 368-368 368-204 0-369-165-369-368 0-204 165-369 369-369z m-46 306l0 227 73 0 0-154 154 0 0-73-227 0z" horiz-adv-x="1000" />

<glyph glyph-name="hc-w-choose" unicode="&#xe85b;" d="M136 300c-12 12-13 32-4 44l8 11c9 13 27 15 40 5l137-105c25-19 65-18 90 3l415 346c12 10 31 9 43-3 12-11 12-29 0-40l-461-455c-23-22-59-22-82 1l-186 193z" horiz-adv-x="1000" />

<glyph glyph-name="hc--w-close" unicode="&#xe85c;" d="M492 749c-220 0-399-179-399-399s179-399 399-399 399 179 399 399-178 399-399 399z m199-559c13-13 12-34 0-46-13-12-33-12-45 1l-155 160-159-154c-13-13-34-12-46 0-12 13-12 33 1 46l160 154-154 160c-12 12-12 33 0 45 13 12 33 12 46-1l154-160 160 154c13 13 33 12 45 0 12-13 12-33-1-46l-160-154 154-159z" horiz-adv-x="1000" />

<glyph glyph-name="hc-w-spot" unicode="&#xe872;" d="M492 665c-174 0-315-141-315-315s141-315 315-315 315 141 315 315-141 315-315 315z" horiz-adv-x="1000" />
</font>
</defs>
</svg>
